<?xml version="1.0" standalone="no"?>
<!DOCTYPE svg PUBLIC "-//W3C//DTD SVG 20010904//EN"
 "http://www.w3.org/TR/2001/REC-SVG-20010904/DTD/svg10.dtd">
<svg version="1.0" xmlns="http://www.w3.org/2000/svg"
 width="1150.000000pt" height="1150.000000pt" viewBox="0 0 1150.000000 1150.000000"
 preserveAspectRatio="xMidYMid meet">
<metadata>
Created by potrace 1.14, written by Peter Selinger 2001-2017
</metadata>
<g transform="translate(0.000000,1150.000000) scale(0.100000,-0.100000)"
fill="#000000" stroke="none">
<path d="M0 5750 l0 -5750 5750 0 5750 0 0 5750 0 5750 -5750 0 -5750 0 0
-5750z m5648 4740 c37 -5 123 -14 192 -20 337 -26 570 -71 633 -120 14 -11 35
-20 46 -20 21 0 101 -36 111 -50 12 -16 131 -89 164 -100 20 -6 56 -31 81 -56
25 -24 48 -44 52 -44 12 0 123 -123 123 -136 0 -8 5 -14 10 -14 12 0 110 -89
108 -99 -2 -21 4 -32 16 -28 17 7 51 -28 41 -42 -3 -7 2 -11 14 -11 12 0 21
-7 21 -15 0 -8 5 -15 10 -15 6 0 10 -9 10 -20 0 -25 39 -80 57 -80 7 0 13 -3
14 -7 3 -34 11 -59 20 -62 15 -5 61 -56 79 -89 9 -15 32 -52 51 -82 19 -30 44
-73 54 -95 10 -22 28 -56 41 -75 12 -19 32 -71 44 -115 29 -106 80 -242 110
-297 11 -20 50 -174 50 -197 0 -10 9 -27 20 -39 11 -11 27 -43 35 -69 9 -26
20 -57 25 -68 5 -11 18 -65 30 -120 43 -198 51 -229 64 -255 66 -125 74 -135
209 -257 20 -18 40 -49 46 -70 10 -35 20 -48 84 -112 19 -19 30 -43 34 -70 6
-40 11 -45 44 -42 20 2 64 -82 53 -101 -4 -7 -15 -22 -25 -33 -9 -11 -20 -41
-24 -66 -6 -42 -4 -49 25 -83 18 -20 36 -36 41 -36 4 0 26 -19 48 -42 38 -41
74 -102 101 -176 7 -18 20 -37 29 -42 46 -25 147 -289 166 -435 17 -127 19
-317 5 -381 -13 -58 -15 -153 -3 -164 4 -4 109 -10 233 -13 234 -6 294 -16
389 -65 88 -45 144 -109 187 -213 31 -76 34 -94 35 -184 0 -97 -7 -157 -31
-240 -6 -22 -14 -51 -17 -65 -3 -14 -11 -29 -18 -35 -6 -5 -20 -25 -30 -44
-30 -59 -96 -118 -145 -130 -25 -6 -67 -18 -95 -26 -27 -8 -81 -19 -120 -25
-83 -13 -145 -26 -201 -42 -46 -13 -49 -31 -10 -72 12 -13 46 -51 76 -85 30
-34 70 -78 88 -98 17 -20 32 -40 32 -45 0 -6 9 -17 20 -26 11 -10 40 -64 65
-122 25 -58 49 -112 54 -120 16 -29 40 -125 59 -235 12 -68 29 -130 46 -163
26 -52 34 -64 90 -129 45 -53 76 -152 83 -270 5 -85 3 -106 -11 -127 -9 -14
-16 -31 -16 -39 0 -19 -213 -224 -259 -247 -21 -12 -46 -29 -56 -40 -26 -29
-112 -67 -190 -83 -38 -9 -104 -25 -145 -36 -99 -26 -299 -49 -545 -60 -110
-5 -209 -10 -219 -10 -26 0 -38 -20 -31 -51 28 -121 28 -113 -12 -187 -47 -87
-99 -150 -131 -158 -13 -3 -58 -39 -98 -80 -41 -41 -79 -75 -84 -75 -5 0 -11
-8 -15 -19 -3 -10 -33 -46 -67 -81 -34 -34 -70 -78 -81 -98 -27 -51 -95 -111
-142 -124 -22 -7 -42 -15 -45 -19 -18 -24 -237 -157 -260 -158 -9 -1 -33 -10
-54 -20 -21 -11 -52 -23 -69 -27 -18 -4 -46 -18 -64 -31 -38 -30 -50 -77 -56
-222 -3 -67 -9 -106 -17 -111 -8 -5 -8 -10 -2 -14 10 -6 5 -43 -9 -61 -4 -6
-13 -32 -20 -58 -11 -45 -13 -47 -29 -32 -16 14 -18 33 -15 153 2 83 7 138 13
140 6 2 9 9 6 17 -3 7 -1 16 5 20 16 10 13 62 -4 69 -8 3 -15 0 -15 -6 0 -24
-13 3 -15 32 -2 17 -5 33 -7 36 -3 2 -34 7 -69 10 -72 7 -122 26 -153 58 -23
24 -46 39 -209 135 -32 18 -70 45 -85 60 -15 15 -43 33 -62 41 -45 18 -107 81
-195 198 -38 51 -82 108 -97 126 -16 19 -28 40 -28 47 0 8 -9 25 -20 39 -11
14 -20 30 -20 36 0 5 -9 20 -20 31 -42 45 -116 214 -144 329 -7 27 -16 55 -19
61 -4 6 -9 60 -12 120 -3 59 -11 191 -17 293 -6 102 -10 197 -10 213 2 52 -43
27 -50 -28 -2 -19 -9 -30 -18 -30 -8 0 -26 -11 -40 -26 -14 -14 -33 -29 -43
-32 -17 -6 -24 -20 -47 -91 -7 -21 -23 -54 -36 -73 -19 -29 -24 -49 -24 -99 0
-50 3 -64 15 -64 8 0 15 -7 15 -16 0 -21 -22 -42 -39 -36 -10 3 -12 0 -8 -12
4 -11 3 -15 -4 -11 -12 8 -49 -23 -49 -41 0 -7 9 -16 21 -19 20 -7 20 -7 2
-20 -14 -10 -18 -22 -15 -44 2 -16 0 -37 -6 -47 -7 -13 -6 -22 4 -32 11 -11
12 -18 4 -28 -7 -7 -9 -23 -5 -34 8 -26 -12 -142 -33 -190 -8 -19 -21 -63 -29
-98 -14 -69 -39 -116 -58 -108 -7 2 -18 -1 -24 -7 -8 -8 -11 -8 -11 1 0 7 -4
12 -9 12 -4 0 -11 -24 -14 -52 -4 -29 -8 -60 -10 -68 -2 -8 -7 -33 -12 -55
-10 -52 -34 -132 -51 -172 -8 -17 -14 -40 -14 -52 0 -12 -6 -21 -15 -21 -8 0
-15 -4 -15 -10 0 -5 7 -10 15 -10 17 0 18 -4 6 -47 -6 -20 -5 -35 2 -42 6 -6
7 -14 2 -18 -4 -5 -10 -2 -12 5 -3 6 -9 12 -14 12 -14 0 -11 -147 4 -154 10
-5 10 -7 0 -12 -22 -10 -15 -29 17 -47 17 -10 30 -23 30 -29 0 -7 -4 -7 -13 0
-18 15 -32 2 -32 -28 1 -20 -6 -27 -34 -35 -33 -10 -43 -20 -56 -60 l-7 -20
-8 20 c-5 11 -9 16 -9 10 -1 -5 -21 -11 -46 -12 -35 -2 -43 1 -38 13 4 12 0
14 -19 9 -19 -5 -27 -1 -36 20 -7 14 -19 28 -27 31 -8 4 -12 11 -8 17 4 7 0 8
-11 4 -14 -5 -16 -3 -11 12 6 21 -10 37 -45 44 -25 4 -25 4 -2 12 12 4 22 9
22 10 0 14 -14 35 -24 35 -12 0 -66 144 -66 178 0 13 -14 35 -34 53 -21 18
-33 36 -29 45 3 8 0 14 -6 14 -6 0 -8 7 -5 15 4 8 1 15 -5 15 -6 0 -11 6 -11
14 0 8 -8 17 -17 19 -14 4 -12 5 5 6 30 1 33 51 3 51 -11 0 -23 5 -26 10 -11
18 -23 10 -35 -24 -9 -28 -15 -33 -33 -29 -17 4 -19 3 -7 -6 19 -13 11 -20
-31 -22 -18 -2 -42 -9 -51 -17 -21 -17 -78 -19 -88 -2 -8 13 -60 -4 -60 -21 0
-7 -20 -8 -64 -4 -44 5 -66 4 -71 -5 -5 -7 -20 -9 -45 -5 -24 4 -55 1 -85 -9
-25 -9 -57 -13 -70 -10 -16 4 -26 0 -34 -13 -6 -10 -11 -12 -11 -5 0 14 -45 7
-67 -10 -16 -12 -33 -2 -33 20 0 10 -9 25 -20 35 -33 28 -24 81 15 89 14 3 19
11 17 27 -1 16 4 24 19 28 16 5 19 11 14 30 -4 17 3 36 26 68 18 25 38 45 44
45 7 0 18 14 25 30 7 17 41 59 76 94 35 35 64 68 64 75 0 12 57 38 73 33 4 -1
14 4 21 11 24 23 -5 48 -61 51 -67 4 -122 16 -130 29 -3 5 -6 25 -5 43 1 18
-3 36 -8 39 -18 11 -10 24 24 36 22 8 37 21 41 36 3 13 12 23 20 23 8 0 16 5
16 10 1 6 2 14 3 19 0 5 4 13 9 17 4 4 7 15 7 23 0 9 18 38 40 65 22 26 40 54
40 62 0 8 5 14 10 14 6 0 10 9 10 20 0 13 13 26 43 39 52 24 87 56 87 80 0 15
-10 18 -66 20 -48 1 -74 7 -91 21 -13 10 -41 21 -63 25 -42 7 -57 35 -20 35
11 0 23 7 26 15 4 8 12 15 20 15 8 0 14 6 14 13 0 7 9 18 21 25 11 7 18 19 16
27 -4 8 5 15 24 19 21 4 29 11 29 27 0 18 -4 20 -25 15 -19 -5 -25 -2 -25 10
0 11 5 14 16 10 11 -4 19 2 26 22 6 16 27 39 47 52 37 24 141 129 141 142 0
17 -112 116 -133 117 -12 1 -39 3 -60 4 -24 1 -39 8 -42 18 -3 9 -26 30 -50
48 -47 34 -55 55 -30 87 8 10 15 33 15 51 0 17 8 39 17 49 12 11 19 38 21 81
3 49 7 61 17 53 12 -10 25 -4 25 12 0 5 -4 6 -10 3 -25 -16 -7 36 20 55 17 12
30 28 30 36 0 8 7 17 15 20 10 4 15 20 15 46 l0 39 35 -5 c19 -3 35 -2 35 2 0
15 -24 32 -44 32 -10 0 -16 3 -13 7 4 3 -1 11 -11 17 -86 53 -94 63 -108 146
-11 68 -8 154 5 158 14 5 15 49 1 57 -5 3 -11 -2 -11 -12 -1 -17 -2 -17 -6 0
-5 21 -11 21 -58 1 -20 -8 -34 -11 -31 -6 3 6 -1 12 -9 16 -8 3 -15 14 -15 25
0 15 -10 23 -40 31 -22 6 -40 15 -40 20 0 6 -6 10 -14 10 -23 0 -190 88 -221
117 -16 16 -52 46 -81 68 -69 54 -214 188 -214 198 0 4 -29 37 -64 73 -35 36
-70 78 -77 92 -7 15 -19 34 -26 43 -7 8 -14 25 -16 37 -2 12 -9 28 -15 34 -7
7 -12 18 -12 24 0 21 -49 107 -79 139 -34 36 -61 87 -61 113 0 11 -7 37 -16
58 -17 39 -88 235 -120 329 -19 55 -22 62 -59 155 -39 95 -62 178 -95 335 -36
168 -45 200 -64 231 -9 12 -20 40 -25 61 -6 21 -20 74 -31 118 -12 44 -28 114
-37 155 -8 41 -23 102 -34 135 -10 33 -25 98 -34 145 -8 47 -20 103 -26 125
-28 106 -48 234 -53 349 -5 110 -2 131 53 411 11 55 27 143 36 195 9 52 20 99
25 105 4 5 16 39 25 75 16 61 53 146 104 234 12 21 33 66 45 100 35 93 60 133
115 188 28 28 54 61 57 74 3 13 10 24 15 24 5 0 13 8 16 18 4 9 15 26 24 37
53 59 86 105 98 138 8 20 19 37 24 37 5 0 23 17 40 37 18 20 57 62 87 93 30
31 70 75 88 98 19 23 39 42 46 42 6 0 25 12 41 28 37 34 66 49 111 58 19 3 38
12 42 19 4 7 23 20 42 30 19 10 48 33 63 51 16 19 34 34 41 34 7 0 21 9 31 20
9 10 33 24 52 31 23 7 33 16 29 25 -3 8 1 14 9 14 8 0 15 5 15 10 0 6 9 10 20
10 11 0 23 7 26 15 4 8 17 15 29 15 13 0 26 4 30 10 3 5 33 14 66 21 46 9 63
17 69 33 6 17 32 29 119 55 61 19 111 38 111 42 0 5 11 9 24 9 14 0 31 6 38
13 7 7 33 19 58 26 25 7 54 18 65 23 12 5 37 10 55 10 19 0 40 4 45 8 6 4 53
10 105 13 52 3 147 13 210 22 63 9 153 18 200 20 47 2 146 9 220 15 74 6 160
12 190 13 30 2 70 4 88 5 18 1 63 -2 100 -8z m1169 -226 c-3 -3 -12 -4 -19 -1
-8 3 -5 6 6 6 11 1 17 -2 13 -5z m1306 -2276 c16 -12 15 -13 -8 -14 -15 -1
-25 3 -25 12 0 17 11 18 33 2z m47 -90 c0 -19 -2 -20 -10 -8 -13 19 -13 30 0
30 6 0 10 -10 10 -22z m27 -20 c-3 -8 -6 -5 -6 6 -1 11 2 17 5 13 3 -3 4 -12
1 -19z m36 -39 c-9 -9 -53 -1 -53 10 0 4 14 6 31 3 17 -2 27 -8 22 -13z m97
-130 c0 -11 -27 -12 -34 0 -3 4 -3 11 0 14 8 8 34 -3 34 -14z m20 -40 c0 -5
-4 -9 -10 -9 -5 0 -10 7 -10 16 0 8 5 12 10 9 6 -3 10 -10 10 -16z m50 -14
c24 15 142 -147 121 -168 -7 -7 -18 -2 -36 19 -14 16 -25 33 -25 37 0 5 -22
32 -50 60 -46 47 -70 86 -35 57 8 -6 19 -9 25 -5z m139 -262 c-10 -32 -12 -33
-24 -16 -10 14 -11 19 -2 23 14 6 16 24 5 36 -4 4 -2 14 4 21 19 23 31 -22 17
-64z m19 -68 c1 -19 -3 -35 -8 -35 -6 0 -10 18 -10 41 0 49 16 44 18 -6z
m-6111 -95 c-2 -24 -17 -15 -17 11 0 11 4 18 9 14 6 -3 9 -14 8 -25z m93 -341
c0 -5 -4 -9 -10 -9 -5 0 -10 7 -10 16 0 8 5 12 10 9 6 -3 10 -10 10 -16z m40
-69 c0 -5 -4 -10 -10 -10 -5 0 -10 5 -10 10 0 6 5 10 10 10 6 0 10 -4 10 -10z
m15 -60 c3 -5 -1 -10 -10 -10 -9 0 -13 5 -10 10 3 6 8 10 10 10 2 0 7 -4 10
-10z m55 -180 c0 -5 -5 -10 -11 -10 -5 0 -7 5 -4 10 3 6 8 10 11 10 2 0 4 -4
4 -10z m32 -70 c1 -26 -2 -44 -7 -43 -13 3 -27 72 -20 92 9 24 23 -1 27 -49z
m381 -1240 c3 -11 1 -20 -4 -20 -5 0 -9 2 -9 4 0 2 -3 11 -6 20 -3 9 -2 16 4
16 5 0 12 -9 15 -20z m67 -200 c0 -5 -5 -10 -11 -10 -5 0 -7 5 -4 10 3 6 8 10
11 10 2 0 4 -4 4 -10z m49 -89 c0 -15 -3 -20 -6 -11 -3 8 -12 19 -19 23 -21
12 -17 26 6 20 14 -4 20 -13 19 -32z m33 -76 c3 -13 0 -29 -5 -34 -8 -8 -8
-11 0 -11 6 0 13 6 16 13 2 6 8 9 12 5 16 -15 -3 -36 -29 -31 -24 5 -26 10
-26 55 0 42 2 48 14 39 8 -6 16 -22 18 -36z m8 -75 c0 -5 -4 -10 -10 -10 -5 0
-10 5 -10 10 0 6 5 10 10 10 6 0 10 -4 10 -10z m32 -72 c-2 -10 -8 -18 -12
-18 -13 0 -17 43 -5 63 9 16 10 16 16 -5 3 -13 3 -31 1 -40z m31 -52 c3 -8 3
-16 0 -19 -8 -9 -53 15 -47 24 8 14 41 10 47 -5z m2 -77 c-4 -6 2 -13 13 -16
23 -6 32 -34 37 -110 2 -29 6 -57 10 -62 3 -6 0 -8 -8 -5 -15 5 -27 46 -27 89
0 12 -7 28 -15 35 -8 7 -15 22 -15 34 0 12 -5 27 -11 33 -7 7 -9 20 -5 30 7
17 8 17 17 0 6 -9 7 -22 4 -28z m86 -343 c1 -6 1 -17 0 -25 -2 -7 2 -10 8 -7
6 4 13 -13 17 -39 3 -25 11 -48 16 -51 5 -3 4 -12 -3 -20 -8 -10 -8 -14 0 -14
7 0 11 -20 11 -50 0 -38 4 -50 15 -50 9 0 15 -10 16 -22 2 -36 3 -42 17 -66 8
-13 11 -30 8 -39 -3 -8 -4 -19 -1 -23 3 -5 7 -57 10 -117 3 -68 9 -109 16
-112 8 -2 8 -6 -1 -11 -8 -5 -10 -15 -5 -26 4 -11 7 -31 6 -46 -1 -14 2 -29 7
-32 5 -3 5 -28 0 -63 -5 -32 -7 -67 -4 -79 3 -11 3 -24 0 -27 -4 -3 -8 -64
-10 -134 -2 -70 -6 -144 -9 -163 -10 -64 -22 -125 -33 -165 -6 -22 -14 -53
-17 -68 -3 -16 -11 -27 -18 -24 -15 5 -14 193 3 327 14 117 3 580 -16 643 -9
29 -14 67 -18 132 -2 33 -6 67 -9 75 -5 15 -21 234 -20 278 1 12 -3 22 -8 22
-5 0 -9 4 -9 10 0 13 30 1 31 -14z m34 -1515 c3 -5 1 -12 -5 -16 -5 -3 -10 1
-10 9 0 18 6 21 15 7z m472 -933 c-3 -8 -6 -5 -6 6 -1 11 2 17 5 13 3 -3 4
-12 1 -19z m83 -18 c6 -11 16 -18 21 -14 7 4 9 -19 8 -65 -3 -58 -8 -76 -26
-96 -13 -13 -28 -36 -33 -49 -6 -17 -21 -28 -49 -36 -22 -6 -43 -15 -46 -20
-9 -14 -43 -12 -47 2 -3 7 -15 13 -28 13 -20 0 -23 5 -23 35 1 62 2 66 43 111
22 24 53 58 68 75 21 25 31 29 45 22 27 -14 50 -2 42 22 -8 26 11 26 25 0z"/>
<path d="M5070 10260 c0 -6 -11 -8 -26 -6 -28 5 -84 -18 -84 -34 0 -5 -8 -8
-18 -7 -10 0 -36 -7 -57 -17 -22 -11 -60 -21 -85 -24 -25 -3 -54 -11 -65 -18
-23 -17 -71 -18 -80 -3 -4 6 -14 7 -24 3 -9 -4 -26 -6 -38 -5 -13 0 -23 -4
-23 -9 0 -7 -6 -7 -17 -2 -28 15 -89 2 -105 -22 -3 -5 -34 -8 -67 -7 -56 2
-61 1 -61 -18 0 -11 -9 -25 -20 -31 -11 -6 -20 -7 -20 -2 0 15 -60 6 -77 -11
-14 -14 -14 -18 -2 -33 12 -16 12 -17 -2 -12 -10 4 -26 -2 -40 -15 -13 -12
-31 -20 -41 -19 -11 2 -18 -3 -18 -14 0 -11 -6 -15 -20 -11 -12 3 -20 0 -20
-8 0 -14 -64 -48 -127 -66 -23 -6 -52 -23 -64 -35 -13 -13 -30 -24 -40 -24 -9
0 -30 -15 -46 -33 -16 -18 -36 -31 -46 -29 -9 2 -20 -4 -23 -12 -3 -9 -11 -16
-18 -16 -6 0 -19 -14 -28 -30 -16 -28 -32 -35 -67 -31 -7 2 -10 -3 -6 -9 8
-13 -18 -36 -57 -51 -16 -6 -26 -15 -23 -19 7 -11 -44 -50 -65 -50 -12 0 -20
-11 -24 -32 -5 -26 -9 -30 -16 -18 -8 13 -11 12 -23 -4 -8 -11 -19 -16 -25
-12 -6 4 -18 -6 -27 -24 -8 -16 -13 -30 -9 -30 3 0 -1 -12 -11 -26 -9 -14 -14
-32 -11 -39 3 -8 -7 -18 -25 -25 -16 -7 -29 -19 -29 -26 0 -8 -12 -20 -27 -27
-39 -17 -123 -105 -117 -121 3 -8 1 -17 -5 -21 -6 -3 -11 -15 -11 -26 0 -11
-4 -18 -8 -15 -14 9 -52 -42 -52 -68 0 -14 -4 -27 -9 -30 -4 -3 -11 -23 -14
-45 -3 -27 -16 -50 -39 -74 -19 -19 -38 -49 -41 -66 -4 -17 -13 -31 -20 -31
-8 0 -21 -17 -31 -37 -26 -60 -47 -95 -73 -123 -12 -13 -23 -30 -23 -36 0 -6
-7 -17 -16 -25 -8 -7 -13 -20 -11 -29 2 -10 0 -25 -5 -34 -11 -19 -18 -53 -22
-101 -2 -16 -6 -37 -10 -46 -4 -10 -6 -23 -4 -30 1 -8 -4 -29 -11 -47 -11 -27
-12 -35 -2 -42 9 -5 6 -9 -9 -13 -19 -5 -21 -10 -15 -36 5 -23 3 -31 -7 -31
-9 0 -9 -3 -2 -8 17 -12 23 -49 10 -69 -7 -10 -13 -36 -15 -57 -1 -21 -7 -48
-13 -60 -14 -27 -18 -200 -6 -301 6 -44 10 -99 10 -122 0 -24 4 -43 8 -43 7 0
14 -19 20 -48 0 -4 8 -18 16 -30 9 -13 18 -49 21 -80 3 -32 16 -79 29 -107 17
-38 24 -73 27 -147 3 -72 8 -101 21 -113 9 -9 16 -25 16 -35 0 -10 5 -22 11
-25 6 -4 8 -14 5 -22 -3 -8 1 -25 10 -39 10 -15 12 -24 5 -24 -6 0 -11 -9 -11
-20 0 -11 5 -20 10 -20 6 0 10 -12 10 -27 0 -16 7 -37 15 -47 8 -11 15 -32 15
-47 0 -35 19 -79 43 -101 10 -9 18 -19 18 -22 -3 -27 2 -38 22 -46 15 -6 17
-9 6 -9 -14 -1 -29 -20 -29 -36 0 -4 43 -17 52 -16 9 1 14 -22 22 -93 3 -27
10 -54 14 -60 4 -6 14 -29 21 -51 8 -22 31 -56 52 -76 22 -20 39 -43 39 -51 0
-8 8 -26 18 -39 10 -13 21 -32 25 -42 4 -9 10 -17 14 -16 25 4 41 -4 46 -22 5
-18 2 -20 -18 -15 -13 3 -26 2 -29 -3 -3 -5 16 -12 43 -16 28 -4 54 -12 59
-18 11 -14 26 -67 23 -84 -1 -6 12 -14 29 -18 16 -4 34 -14 40 -23 8 -15 11
-15 19 -3 8 12 12 10 22 -13 7 -15 28 -34 46 -41 21 -9 33 -21 33 -33 0 -16
32 -42 36 -30 3 9 54 -62 54 -76 0 -9 5 -16 11 -16 6 0 9 7 5 15 -8 21 6 19
36 -5 14 -10 45 -22 69 -26 36 -6 85 -30 109 -54 3 -3 12 -6 20 -8 8 -2 17 -8
18 -13 2 -5 13 -9 23 -9 11 0 18 -4 15 -9 -6 -8 23 -15 104 -26 19 -2 46 -7
60 -11 14 -3 76 -9 138 -14 80 -5 118 -12 130 -23 14 -13 37 -15 122 -12 58 3
116 7 130 10 14 3 34 7 45 9 35 6 110 39 118 53 4 7 16 13 26 13 10 0 21 3 25
7 9 10 78 33 98 33 10 0 25 11 34 25 9 14 22 25 28 25 21 0 36 22 26 39 -5 10
-2 37 7 71 13 44 17 122 19 390 2 184 8 391 14 460 50 601 52 901 5 1105 -8
33 -18 80 -22 105 -7 37 -13 46 -33 48 -14 2 -33 11 -42 19 -19 17 -86 20
-157 8 -61 -11 -105 13 -127 70 -14 38 -20 43 -56 48 -25 3 -46 13 -55 26 -8
12 -22 21 -32 21 -39 0 -45 26 -44 168 l2 135 32 33 c30 31 32 35 19 59 -12
23 -11 33 4 80 17 48 24 56 82 90 35 21 66 45 69 55 6 17 44 30 92 30 16 0 27
7 30 19 6 23 71 44 134 42 30 0 51 5 59 14 18 21 50 18 77 -7 21 -20 24 -20
41 -5 32 29 77 32 123 8 28 -15 50 -20 72 -16 26 5 37 1 56 -19 18 -19 35 -26
63 -26 29 0 47 -8 75 -34 21 -18 47 -36 59 -40 33 -10 61 -74 74 -171 11 -83
11 -94 -6 -130 -11 -22 -30 -45 -44 -52 -13 -7 -29 -19 -35 -27 -7 -10 -41
-17 -105 -21 -52 -5 -113 -14 -134 -21 -23 -8 -43 -10 -50 -5 -23 17 -74 21
-87 5 -9 -12 -8 -23 7 -55 30 -67 15 -124 -45 -176 l-26 -23 3 -427 c4 -435
-6 -708 -35 -978 -19 -183 -18 -390 2 -550 9 -66 18 -139 21 -163 3 -28 11
-45 22 -49 9 -4 20 -11 25 -17 5 -7 11 -5 18 7 5 9 16 17 23 17 8 0 16 9 19
19 3 15 11 18 27 14 19 -5 21 -3 15 16 -5 18 -2 21 24 21 17 0 31 5 31 10 0 6
8 10 19 10 14 0 17 6 14 24 -3 13 0 27 6 30 6 4 11 20 11 36 0 16 5 32 10 35
8 5 7 11 0 20 -9 11 -7 18 7 33 10 10 26 21 35 25 9 3 18 16 20 29 2 13 10 24
18 24 8 1 21 2 28 3 19 2 14 19 -8 26 -29 9 -25 29 12 60 24 20 33 23 39 13 6
-9 9 -6 9 10 0 25 0 25 34 12 22 -8 26 -7 26 9 0 10 7 21 15 25 8 3 15 13 15
22 0 10 3 14 6 11 4 -3 27 11 53 33 25 22 48 35 50 29 1 -6 21 25 42 67 22 43
43 81 47 84 4 3 12 14 18 24 6 11 19 24 29 30 10 6 28 19 38 28 11 9 33 20 48
23 16 4 29 11 29 15 0 5 15 20 34 32 18 13 33 26 32 30 -3 16 44 57 59 52 13
-5 15 -2 10 18 -6 22 -1 27 39 42 26 10 48 26 51 37 4 10 9 20 13 20 41 7 62
6 62 -3 0 -7 6 -6 15 2 8 7 15 9 15 4 1 -18 59 102 60 122 0 12 7 24 15 28 8
3 15 16 15 30 0 16 7 27 20 31 11 3 20 11 20 16 0 12 60 69 74 69 15 1 56 36
56 48 0 26 33 67 77 96 26 18 47 37 46 43 -1 5 16 17 38 27 26 12 39 24 39 37
0 12 7 19 19 19 32 0 109 37 132 64 12 14 27 23 32 19 6 -3 15 1 21 9 16 21
94 54 149 62 26 4 53 13 60 20 7 7 44 15 83 18 39 3 78 9 85 14 8 5 22 7 32 6
9 -2 17 2 17 8 0 8 10 9 30 5 25 -6 30 -3 35 18 6 22 13 25 78 30 80 6 110 14
101 28 -3 6 0 16 6 24 10 12 10 15 -1 15 -7 0 -3 7 10 16 14 10 21 23 18 35
-4 13 3 21 27 29 31 10 32 12 43 97 7 48 8 92 4 97 -5 6 -11 40 -13 75 -3 37
-10 67 -16 69 -7 2 -12 12 -12 22 0 9 -6 22 -13 28 -7 6 -13 31 -15 57 -1 25
-7 55 -13 67 -8 15 -8 22 0 28 8 5 7 15 -4 36 -8 16 -15 46 -15 66 0 20 -4 39
-9 42 -5 3 -12 22 -16 42 -3 20 -13 47 -21 59 -16 24 -45 115 -37 115 3 0 0 7
-7 15 -7 8 -10 25 -6 39 3 14 2 28 -4 31 -5 3 -10 20 -10 36 0 28 -33 71 -63
82 -8 3 -5 10 7 19 19 15 19 15 -2 36 -12 12 -22 26 -22 31 0 5 -9 13 -20 16
-11 3 -20 15 -20 25 0 14 5 18 16 13 12 -4 15 -1 12 13 -2 11 -11 18 -20 16
-15 -2 -30 26 -42 80 -4 19 -15 30 -31 34 -14 3 -25 14 -25 23 -1 44 -63 161
-87 161 -17 0 -35 37 -28 59 4 14 -3 22 -27 34 -18 9 -39 25 -46 36 -6 12 -28
27 -47 35 -27 11 -34 20 -32 37 1 17 -6 24 -30 33 -18 6 -50 26 -70 44 -21 18
-42 36 -48 40 -5 4 -29 22 -52 40 -23 18 -45 32 -50 31 -20 -3 -33 2 -33 14 0
8 -11 20 -25 27 -14 7 -25 19 -25 27 0 7 -7 13 -15 13 -8 0 -15 5 -15 10 0 6
-11 10 -25 10 -19 0 -30 10 -49 48 -27 52 -57 85 -84 87 -18 2 -93 36 -126 58
-15 10 -20 9 -29 -4 -9 -15 -13 -13 -26 14 -11 22 -26 34 -51 40 -19 5 -57 15
-85 22 -61 17 -174 39 -277 56 -43 6 -78 15 -78 19 0 4 -12 10 -27 13 -16 4
-59 13 -98 23 -55 12 -93 14 -175 9 -58 -4 -130 -9 -160 -10 -30 -2 -68 -8
-83 -14 -35 -14 -50 -14 -42 -1 3 6 2 10 -4 10 -5 0 -11 -6 -14 -12 -3 -9 -10
-6 -21 8 -13 18 -26 22 -82 23 -36 0 -70 3 -75 6 -5 4 -9 1 -9 -5z m1635 -430
c3 -5 1 -10 -4 -10 -6 0 -11 5 -11 10 0 6 2 10 4 10 3 0 8 -4 11 -10z m-178
-2665 c0 -8 -4 -15 -9 -15 -10 0 -11 14 -1 23 9 10 10 9 10 -8z"/>
<path d="M5055 8409 c-22 -5 -45 -10 -50 -12 -26 -7 -84 -61 -95 -88 -22 -52
1 -58 64 -16 66 44 99 46 168 12 27 -14 52 -25 54 -25 2 0 4 10 4 23 0 40 20
50 46 22 29 -31 60 -32 68 -2 8 28 -34 67 -72 67 -15 0 -45 7 -67 15 -45 16
-63 17 -120 4z m130 -59 c3 -5 1 -10 -4 -10 -6 0 -11 5 -11 10 0 6 2 10 4 10
3 0 8 -4 11 -10z"/>
<path d="M5350 8290 c-7 -4 -9 -13 -5 -20 5 -9 4 -11 -3 -6 -7 4 -12 1 -12 -7
0 -8 -16 -29 -35 -46 -38 -33 -44 -51 -17 -51 46 1 62 12 68 51 5 28 11 39 24
39 10 0 20 -6 23 -12 3 -9 8 -10 16 -3 15 14 -40 67 -59 55z"/>
<path d="M4885 8175 c-22 -14 -48 -25 -57 -25 -10 0 -18 -7 -18 -15 0 -12 8
-14 39 -9 24 4 41 2 45 -5 4 -6 18 -11 31 -11 32 0 52 58 27 78 -20 16 -20 16
-67 -13z"/>
<path d="M7856 7202 c-3 -5 -25 -12 -48 -16 -24 -4 -52 -8 -63 -10 -30 -4
-145 -45 -190 -67 -91 -45 -124 -69 -194 -143 -19 -20 -37 -36 -41 -36 -19 0
-136 -213 -158 -285 -59 -201 -65 -268 -41 -460 30 -242 65 -358 133 -432 20
-22 36 -46 36 -53 0 -18 43 -75 101 -133 48 -49 76 -60 257 -104 12 -3 22 -9
22 -13 0 -16 125 -57 165 -55 68 5 128 16 166 30 20 8 49 14 65 13 16 0 49 5
74 12 25 6 63 16 85 21 65 17 175 84 253 154 39 37 72 73 72 80 0 7 6 15 13
18 18 7 134 237 143 281 10 54 1 67 -35 53 -37 -13 -47 -6 -100 74 -49 73 -47
109 9 171 36 38 40 40 67 30 15 -6 43 -14 61 -17 30 -6 32 -5 32 22 -1 72 -22
178 -59 293 -58 184 -81 231 -139 292 -29 29 -74 75 -100 101 -52 54 -132 98
-232 129 -36 11 -71 25 -79 32 -17 14 -30 15 -162 22 -63 4 -109 2 -113 -4z"/>
<path d="M7213 7183 c-20 -3 -33 -10 -33 -19 0 -8 -6 -14 -12 -14 -7 0 -30
-19 -51 -43 -21 -23 -49 -53 -62 -67 -12 -14 -29 -39 -38 -56 -9 -17 -22 -36
-31 -43 -8 -7 -20 -29 -27 -49 -6 -20 -24 -64 -39 -97 -15 -33 -31 -71 -35
-85 -11 -36 -45 -70 -71 -70 -12 0 -27 -7 -34 -15 -7 -8 -10 -15 -6 -15 3 0
-8 -13 -26 -30 -17 -16 -36 -30 -42 -30 -7 0 -6 -3 2 -8 9 -6 6 -15 -12 -37
-19 -21 -22 -32 -14 -42 8 -10 4 -15 -16 -23 -14 -5 -26 -16 -26 -25 0 -8 -10
-17 -23 -20 -20 -6 -22 -11 -17 -48 3 -23 10 -49 15 -57 16 -24 61 -43 84 -35
13 4 21 2 21 -5 0 -6 7 -18 16 -27 21 -22 40 -3 25 25 -14 26 -15 85 -1 77 6
-3 10 0 10 7 1 19 40 -31 40 -51 0 -10 3 -21 7 -25 14 -14 33 -91 23 -94 -16
-6 -11 -30 7 -41 10 -5 15 -13 11 -16 -4 -4 2 -23 13 -42 11 -19 17 -39 13
-44 -3 -5 2 -21 10 -34 9 -14 12 -25 6 -25 -18 0 -11 -18 10 -25 12 -4 20 -15
20 -28 0 -31 26 -145 41 -185 8 -19 19 -30 26 -28 8 4 13 -3 13 -19 0 -16 6
-25 15 -25 8 0 15 -7 15 -16 0 -12 -3 -14 -12 -6 -16 13 -57 -18 -63 -46 -12
-63 -70 -142 -104 -142 -14 0 -19 -5 -15 -15 7 -17 41 -19 79 -5 20 8 27 7 31
-5 6 -13 60 -51 97 -67 10 -5 17 -18 17 -37 0 -31 25 -45 52 -30 16 9 58 1 58
-11 0 -5 24 -12 53 -15 54 -7 107 -41 107 -69 0 -21 19 -30 26 -12 12 31 43
29 81 -7 28 -27 48 -37 88 -42 28 -3 59 -3 68 1 10 3 31 1 47 -6 24 -10 52
-10 140 0 61 8 110 17 110 22 0 4 11 8 24 8 14 0 27 4 31 9 3 5 19 12 36 16
17 4 33 13 36 21 3 7 15 13 26 12 12 -1 38 5 57 14 19 9 61 24 93 34 32 9 66
27 75 39 10 12 28 27 40 34 13 7 22 20 20 29 -4 20 -37 23 -58 6 -8 -7 -34
-17 -57 -23 -23 -7 -45 -15 -48 -20 -3 -5 -29 -15 -57 -21 -29 -7 -56 -18 -60
-24 -10 -15 -320 -15 -325 1 -3 7 -21 15 -41 19 -20 4 -41 10 -47 14 -13 9
-67 24 -81 22 -6 -1 -30 5 -54 13 -23 8 -58 15 -76 15 -19 0 -34 4 -34 9 0 8
-30 21 -55 25 -5 0 -10 6 -10 13 0 6 -13 25 -30 41 -16 17 -30 41 -31 54 -1
13 -2 31 -2 40 -1 9 -17 22 -37 29 -19 7 -37 21 -41 31 -8 26 -38 24 -31 -2 3
-11 1 -20 -3 -20 -5 0 -10 10 -12 22 -4 30 -58 45 -75 21 -7 -9 -13 -15 -13
-12 -1 2 -2 49 -5 104 -3 75 -7 102 -19 111 -9 6 -16 16 -16 22 0 6 -10 19
-23 29 -32 25 -36 34 -48 100 -6 32 -15 64 -21 71 -6 6 -7 12 -3 12 4 0 1 7
-6 17 -19 23 -17 140 3 184 9 19 19 78 23 134 3 55 8 111 10 125 13 80 27 136
40 166 8 19 22 51 30 72 9 20 20 44 26 52 5 8 17 31 27 50 9 19 21 38 25 41 5
3 19 29 32 56 12 28 32 59 42 69 11 10 23 32 27 49 4 16 25 46 47 67 21 20 39
40 39 43 0 5 -22 5 -77 -2z m7 -1673 c0 -5 -4 -10 -10 -10 -5 0 -10 5 -10 10
0 6 5 10 10 10 6 0 10 -4 10 -10z m-125 -210 c3 -5 1 -10 -4 -10 -6 0 -11 5
-11 10 0 6 2 10 4 10 3 0 8 -4 11 -10z"/>
<path d="M5535 6150 c-3 -5 -1 -10 4 -10 6 0 11 5 11 10 0 6 -2 10 -4 10 -3 0
-8 -4 -11 -10z"/>
<path d="M8810 5892 c0 -26 19 -33 120 -42 113 -11 318 -50 333 -64 7 -6 24
-17 40 -25 50 -26 46 -82 -7 -95 -13 -3 -35 -21 -49 -40 -14 -18 -51 -50 -82
-70 -30 -21 -55 -41 -55 -46 0 -5 -10 -12 -22 -15 -40 -11 -87 -35 -95 -48
-14 -21 -96 -73 -146 -92 -26 -10 -51 -24 -55 -30 -4 -7 -27 -29 -52 -50 -24
-20 -55 -51 -67 -68 -32 -43 -30 -127 3 -127 8 0 14 -4 14 -10 0 -5 11 -12 25
-16 14 -3 25 -10 25 -14 0 -35 336 -57 515 -34 131 17 243 113 322 274 21 45
26 301 6 321 -7 7 -13 25 -13 40 0 16 -8 34 -18 41 -9 7 -25 25 -35 41 -10 15
-22 27 -27 27 -5 0 -33 18 -62 40 -29 22 -59 40 -66 40 -8 0 -28 6 -45 14 -50
22 -122 34 -252 42 -127 7 -144 9 -212 20 -39 6 -43 5 -43 -14z"/>
<path d="M8680 5622 c0 -4 -13 -13 -29 -18 -16 -6 -35 -24 -42 -40 -8 -16 -23
-33 -34 -39 -54 -27 -113 -94 -101 -114 14 -22 94 46 209 177 31 36 33 42 12
42 -8 0 -15 -4 -15 -8z"/>
<path d="M6805 5440 c-3 -5 -1 -10 4 -10 6 0 11 5 11 10 0 6 -2 10 -4 10 -3 0
-8 -4 -11 -10z"/>
<path d="M8422 5204 c-6 -10 -26 -16 -63 -17 -35 -2 -75 -13 -113 -31 -33 -16
-91 -37 -130 -48 -39 -11 -76 -24 -83 -30 -7 -5 -17 -7 -22 -4 -5 4 -24 -2
-41 -13 -20 -12 -27 -21 -20 -26 13 -8 90 3 106 16 6 5 53 13 105 18 193 21
319 63 319 107 0 14 -27 44 -40 44 -5 0 -13 -7 -18 -16z"/>
<path d="M6172 4942 c-15 -28 -23 -72 -14 -72 5 0 3 -39 -4 -87 -6 -49 -15
-128 -19 -177 -3 -49 -10 -97 -15 -106 -5 -10 -27 -69 -49 -131 -48 -139 -67
-186 -82 -194 -5 -4 -8 -13 -5 -21 3 -7 1 -16 -4 -19 -6 -4 -10 -16 -10 -28 0
-41 -54 -167 -71 -167 -17 0 -34 -27 -30 -45 2 -5 -1 -7 -4 -3 -9 9 -41 -30
-56 -68 -6 -16 -10 -72 -9 -124 1 -131 0 -172 -6 -192 -3 -10 -1 -18 4 -18 5
0 14 18 21 40 7 22 16 38 21 35 4 -3 14 11 20 30 6 19 18 38 26 43 8 4 23 30
34 58 10 27 23 48 28 47 10 -2 42 56 42 74 0 6 9 18 20 28 11 10 20 23 20 28
0 6 20 35 45 65 25 30 45 58 45 63 0 4 21 39 47 76 55 80 158 186 217 224 22
14 64 48 92 75 28 27 71 64 96 82 25 18 56 47 68 65 20 30 59 62 110 92 35 21
50 38 50 56 0 26 -12 24 -44 -6 -15 -14 -31 -25 -35 -25 -5 0 -14 -7 -21 -15
-7 -8 -21 -15 -32 -15 -11 0 -31 -13 -44 -30 -14 -16 -43 -35 -65 -41 -21 -7
-39 -15 -39 -19 0 -4 -17 -11 -37 -15 -21 -4 -44 -12 -51 -18 -10 -8 -15 -8
-20 0 -4 6 -16 12 -26 14 -27 5 -40 52 -65 219 -20 133 -37 188 -61 191 -6 1
-14 3 -20 4 -5 1 -14 3 -20 4 -5 0 -10 7 -10 15 0 21 -29 28 -38 8z"/>
<path d="M6960 4826 c0 -22 19 -30 35 -16 22 18 18 30 -10 30 -15 0 -25 -6
-25 -14z"/>
<path d="M6897 4775 c-20 -28 -15 -30 32 -14 17 6 31 17 31 25 0 23 -44 15
-63 -11z"/>
<path d="M8049 4715 c-3 -2 -28 -6 -56 -7 -29 -2 -55 -7 -59 -11 -4 -4 -21 -7
-39 -7 -17 0 -36 -5 -43 -12 -7 -7 -12 -8 -12 -4 0 5 -7 3 -15 -4 -10 -9 -15
-9 -15 -1 0 6 -9 11 -19 11 -11 0 -22 4 -25 9 -7 10 -91 9 -102 -2 -4 -4 -14
-7 -23 -7 -9 0 -45 -14 -79 -30 -69 -32 -166 -42 -190 -18 -9 9 -15 9 -24 0
-7 -7 -21 -12 -32 -13 -17 0 -16 -2 7 -11 15 -5 27 -16 27 -24 0 -11 -5 -11
-25 -2 -19 8 -29 8 -37 0 -8 -8 -16 -7 -29 1 -10 6 -22 8 -26 4 -4 -5 -2 -11
4 -15 35 -22 -38 -46 -81 -27 -13 5 -17 5 -13 -2 4 -6 -3 -9 -18 -7 -15 1 -25
-3 -25 -11 0 -9 8 -11 22 -7 21 5 21 5 2 -15 -10 -10 -27 -17 -37 -15 -9 2
-24 -1 -32 -8 -11 -9 -15 -9 -15 -1 0 8 -4 8 -14 -1 -8 -7 -10 -17 -6 -23 4
-5 -9 -44 -29 -85 -34 -69 -39 -75 -80 -87 -24 -7 -62 -28 -85 -46 -22 -19
-52 -40 -66 -47 -45 -24 -89 -64 -101 -92 -6 -14 -17 -29 -25 -32 -8 -3 -14
-15 -14 -27 0 -13 -7 -30 -15 -39 -8 -9 -20 -43 -25 -76 -12 -66 -29 -106 -42
-98 -4 3 -8 -4 -8 -15 0 -11 -4 -23 -10 -26 -5 -3 -10 -17 -10 -30 0 -13 -9
-30 -21 -38 -13 -9 -16 -17 -10 -22 17 -10 13 -53 -5 -63 -11 -6 -15 -17 -11
-31 3 -11 1 -21 -4 -21 -5 0 -9 -8 -9 -17 0 -14 -2 -15 -9 -4 -5 7 -13 11 -19
7 -16 -10 -26 15 -23 52 2 30 0 33 -18 27 -12 -3 -21 -2 -21 3 0 5 10 12 21
15 16 4 20 11 16 28 -3 13 0 28 9 37 9 9 13 24 10 37 -4 14 0 28 9 35 8 7 14
18 14 24 -1 6 1 24 6 40 4 16 8 38 9 50 1 12 15 29 33 41 18 11 32 24 33 29 0
5 8 15 18 22 14 11 15 16 4 34 -8 13 -9 27 -4 38 5 9 7 23 5 29 -3 7 2 16 11
19 9 3 16 14 16 24 0 10 7 21 16 24 8 3 14 14 13 23 -3 32 1 43 14 43 7 0 17
10 22 22 6 13 18 24 28 26 11 2 27 12 38 23 10 10 25 19 33 19 7 0 19 6 25 14
6 7 25 16 41 20 18 3 30 12 30 21 0 8 9 15 19 15 11 0 32 11 46 24 15 14 33
22 44 19 16 -4 19 3 23 54 3 33 1 67 -5 78 -10 18 -12 18 -15 3 -2 -9 -19 -22
-37 -28 -19 -6 -34 -14 -34 -18 4 -22 -3 -32 -22 -32 -12 0 -35 -13 -51 -30
-15 -16 -32 -30 -37 -30 -5 0 -11 -7 -15 -15 -3 -8 -11 -15 -19 -15 -7 0 -23
-11 -34 -24 -12 -13 -28 -28 -37 -33 -10 -5 -18 -23 -19 -39 -2 -24 -7 -30
-31 -32 -37 -5 -81 -33 -66 -42 7 -4 -4 -19 -27 -40 -21 -18 -30 -30 -21 -27
10 3 20 2 23 -3 4 -7 -22 -22 -45 -25 -3 0 -11 -4 -17 -8 -7 -5 -18 -5 -24 -1
-9 5 -10 -1 -5 -21 6 -23 4 -26 -10 -21 -13 5 -15 2 -11 -14 4 -15 0 -20 -14
-20 -11 0 -19 -7 -19 -16 0 -8 -4 -13 -10 -9 -11 7 -40 -45 -40 -72 0 -10 -7
-26 -14 -36 -14 -18 -15 -18 -25 0 -10 17 -10 16 -11 -3 0 -12 -7 -24 -15 -28
-8 -3 -15 -15 -15 -26 0 -11 -4 -20 -10 -20 -5 0 -10 -8 -10 -19 0 -10 -7 -24
-15 -31 -8 -7 -15 -20 -15 -29 0 -9 -5 -22 -11 -28 -8 -8 -8 -17 0 -31 8 -16
7 -21 -6 -26 -12 -5 -14 -9 -5 -18 17 -17 15 -38 -3 -38 -8 0 -12 -6 -9 -13 2
-7 -7 -19 -21 -27 -19 -10 -25 -21 -25 -47 0 -18 -4 -33 -9 -33 -5 0 -8 -15
-5 -34 2 -20 -1 -40 -8 -48 -21 -22 -38 -56 -38 -75 0 -10 -6 -29 -13 -43 -11
-21 -9 -27 9 -47 12 -13 29 -23 38 -23 9 0 16 -4 16 -10 0 -5 13 -10 29 -10
16 0 34 -7 41 -15 7 -8 9 -15 5 -15 -4 0 -2 -7 6 -16 10 -13 10 -17 0 -24 -8
-4 -11 -16 -7 -28 9 -27 -28 -53 -78 -55 -20 -1 -36 -5 -36 -9 0 -12 -38 -9
-45 3 -10 14 -37 -17 -52 -60 -7 -19 -10 -38 -7 -43 3 -5 -2 -18 -11 -28 -12
-13 -14 -23 -7 -37 5 -10 14 -29 20 -43 38 -96 48 -118 65 -142 10 -16 27 -28
38 -28 16 0 19 7 19 43 0 24 4 47 8 53 5 5 14 34 22 64 16 68 30 101 41 95 4
-3 14 1 22 9 19 19 190 19 229 -1 18 -8 45 -11 80 -7 29 3 58 6 64 7 7 0 28
-7 47 -16 32 -16 40 -16 108 -1 41 9 88 22 105 29 16 8 39 12 50 9 26 -7 63
21 48 36 -6 6 -20 11 -30 10 -42 -1 -61 0 -104 4 -25 2 -61 1 -79 -2 -18 -4
-63 -4 -100 0 -36 5 -101 10 -143 12 -84 4 -138 20 -138 42 0 9 -11 14 -28 14
-28 0 -28 0 -26 63 1 34 7 80 13 102 5 22 12 64 14 92 2 29 9 59 15 66 12 15
71 11 73 -4 4 -29 7 -52 8 -75 1 -16 8 -28 20 -31 11 -3 22 -11 25 -19 4 -11
16 -13 44 -8 31 5 40 3 45 -10 6 -15 39 -17 53 -4 3 4 17 2 31 -5 38 -17 44 3
38 138 -4 109 -8 145 -17 197 -2 9 0 17 5 17 32 3 37 -1 37 -28 0 -16 6 -31
14 -34 14 -6 67 -101 64 -115 -5 -22 17 -85 33 -95 11 -7 19 -18 19 -25 0 -22
24 -39 50 -36 14 1 28 3 33 3 4 1 12 11 18 24 13 28 58 51 75 36 17 -14 76
-30 69 -18 -4 5 3 9 14 9 12 0 21 -4 21 -10 0 -5 9 -10 20 -10 14 0 20 7 20
23 1 20 2 20 11 4 13 -23 29 -13 29 19 0 13 5 24 11 24 6 0 10 -10 9 -22 -4
-39 -1 -42 20 -22 10 10 27 26 37 34 16 14 16 15 0 18 -9 2 -17 10 -17 17 0 8
6 12 14 9 8 -3 17 -1 20 4 10 16 -5 44 -20 38 -21 -8 -18 41 4 53 15 9 15 10
1 11 -13 0 -19 20 -29 93 -7 50 -18 100 -26 111 -10 14 -10 23 -1 38 10 16 9
22 -6 33 -10 7 -19 27 -19 45 -1 22 -5 29 -15 26 -8 -3 -23 -1 -34 4 -15 9
-17 15 -9 31 8 15 7 21 -4 25 -16 6 -17 71 -1 66 6 -2 9 -10 7 -18 -2 -8 4
-14 13 -14 9 0 18 -12 21 -29 4 -18 14 -31 26 -34 11 -3 17 -10 14 -16 -6 -9
18 -76 44 -122 5 -9 12 -33 15 -53 4 -20 11 -36 15 -36 8 0 35 -80 32 -96 -1
-7 4 -40 12 -75 8 -34 13 -66 10 -71 -3 -4 -1 -8 4 -8 5 0 17 -18 28 -40 19
-40 34 -46 79 -34 12 3 28 23 38 47 20 49 47 168 47 210 0 22 4 28 18 25 11
-2 16 -11 14 -26 -2 -15 6 -33 22 -49 23 -23 25 -30 19 -84 l-6 -60 32 -12
c32 -12 43 -30 15 -25 -10 2 -19 -2 -21 -8 -6 -17 29 -27 39 -12 4 7 8 11 9 8
0 -3 2 -14 4 -25 2 -11 10 -24 18 -30 7 -5 12 -16 9 -23 -4 -12 29 -52 43 -52
3 0 3 11 -1 24 -4 18 0 28 15 38 12 7 21 16 21 19 0 4 14 22 31 40 30 32 31
34 10 37 -23 4 -25 10 -12 31 8 12 12 12 25 2 20 -17 20 -8 1 29 -17 33 -11
80 11 80 17 0 34 -31 36 -67 2 -32 14 -43 45 -43 12 0 35 -8 53 -17 30 -17 31
-17 43 2 7 11 15 29 19 40 6 19 6 19 13 -2 4 -13 23 -28 46 -37 39 -16 49 -31
27 -39 -18 -6 -6 -16 22 -19 l24 -3 1 124 c2 121 1 125 -25 155 -16 17 -31 50
-35 73 -4 24 -11 45 -16 49 -5 3 -7 10 -4 15 4 5 -1 19 -9 31 -9 12 -16 35
-16 50 0 17 -5 28 -14 28 -9 0 -12 8 -8 26 3 18 -1 29 -16 39 -21 15 -26 35
-42 155 -20 150 -21 170 -10 170 5 0 10 -5 10 -12 0 -7 16 -26 36 -43 32 -28
36 -37 41 -95 3 -36 12 -77 19 -92 8 -15 14 -41 14 -58 0 -33 23 -95 44 -120
8 -8 17 -30 21 -47 3 -18 10 -33 14 -33 3 0 12 -26 20 -57 7 -32 22 -66 32
-76 10 -10 19 -28 19 -40 0 -12 7 -35 15 -51 9 -16 13 -31 10 -34 -2 -3 4 -21
15 -41 11 -20 24 -48 30 -63 6 -19 14 -26 25 -22 9 4 14 12 11 19 -3 8 2 16
10 19 8 3 14 13 14 23 0 15 4 14 24 -7 13 -14 21 -28 19 -32 -7 -13 17 -9 41
7 17 11 22 22 18 40 -2 14 0 25 6 25 7 0 8 33 5 98 -3 53 -5 114 -5 135 1 26
-3 40 -14 44 -8 3 -13 11 -10 18 2 7 -2 21 -9 32 -8 10 -15 24 -15 30 0 15
-58 113 -74 128 -24 22 -52 105 -62 190 -1 11 -3 22 -4 25 -1 3 -1 15 0 28 1
12 -4 22 -10 22 -7 0 -9 8 -4 23 4 12 7 29 7 37 0 8 5 18 10 22 6 3 10 20 10
37 0 17 4 31 7 31 14 0 32 -30 27 -44 -3 -8 3 -22 14 -32 12 -10 19 -29 18
-44 -3 -37 12 -110 21 -105 5 3 14 -18 21 -46 7 -28 19 -54 26 -56 7 -3 13
-15 13 -27 0 -12 7 -32 16 -44 8 -12 13 -26 10 -31 -3 -5 1 -14 9 -21 8 -7 15
-19 15 -26 0 -8 4 -14 9 -14 5 0 12 -16 15 -35 5 -22 13 -35 23 -35 8 0 13 6
10 13 -2 6 0 23 6 37 5 14 11 42 13 64 3 51 15 61 45 38 19 -16 21 -22 11 -35
-10 -11 -10 -17 -2 -22 7 -4 10 -15 7 -25 -3 -10 0 -40 5 -67 8 -41 13 -87 19
-180 1 -13 6 -20 14 -17 7 3 16 -5 20 -18 7 -23 7 -23 18 5 16 40 25 33 25
-19 0 -25 3 -48 6 -51 3 -4 6 3 6 15 0 11 5 22 11 24 9 3 9 10 -1 27 -11 21
-10 23 5 18 23 -10 45 15 33 36 -5 10 -13 15 -19 12 -18 -12 -28 5 -19 31 9
22 7 27 -10 31 -20 5 -28 23 -10 23 5 0 7 7 4 15 -4 8 -2 15 3 15 14 0 -2 90
-21 128 -9 17 -16 45 -18 64 -2 39 -38 108 -55 108 -7 0 -13 4 -13 9 0 5 6 12
13 14 10 4 10 6 0 6 -7 1 -13 10 -13 21 0 11 -4 20 -10 20 -5 0 -10 -12 -10
-26 0 -16 -5 -24 -12 -21 -7 2 -21 0 -30 -5 -30 -15 -21 8 17 45 19 19 35 41
35 51 0 19 -19 22 -21 4 -1 -7 -5 9 -10 36 -4 27 -12 52 -17 55 -5 3 -10 20
-10 36 -1 17 -4 67 -7 112 -6 71 -5 84 9 89 10 4 16 18 16 35 0 16 4 29 9 29
5 0 17 3 26 6 13 5 16 2 13 -17 -2 -14 2 -23 8 -22 9 2 9 -9 2 -39 -5 -23 -6
-55 -2 -72 4 -17 6 -49 5 -71 -1 -48 7 -77 20 -69 7 4 8 45 5 110 l-6 104 36
0 c34 0 35 -1 32 -32 -2 -28 1 -34 20 -36 27 -4 29 -22 2 -22 -12 0 -20 -7
-21 -17 -3 -49 4 -89 17 -96 9 -5 12 -16 9 -27 -3 -10 -2 -21 3 -24 6 -3 13
-22 17 -42 7 -41 25 -64 50 -64 17 0 17 12 -1 73 -6 19 12 24 19 5 3 -7 6 -4
6 7 1 23 13 13 35 -30 14 -27 16 -28 16 -7 0 12 4 22 9 22 5 0 7 -9 4 -20 -3
-12 0 -20 7 -20 9 0 11 10 6 31 -9 46 2 79 27 79 23 0 97 -75 97 -98 0 -7 6
-15 14 -18 7 -3 12 -15 12 -27 -1 -12 4 -30 12 -39 13 -15 13 -18 1 -18 -12 0
-12 -2 0 -9 8 -5 12 -18 8 -31 -3 -12 -1 -34 5 -49 6 -14 14 -35 19 -46 4 -11
11 -45 14 -75 3 -30 19 -82 35 -115 16 -33 31 -77 35 -97 3 -23 11 -38 20 -38
18 0 35 -31 35 -62 0 -13 7 -51 16 -83 8 -33 16 -81 17 -107 2 -50 17 -74 39
-66 10 4 13 33 13 112 0 66 4 105 10 103 6 -2 11 -23 13 -48 1 -24 6 -51 9
-59 4 -8 8 -39 8 -68 1 -42 -2 -55 -17 -63 -10 -5 -18 -20 -18 -32 1 -21 1
-21 15 3 9 15 15 19 15 10 0 -11 6 -8 20 9 11 13 20 20 20 16 0 -5 11 4 25 19
14 15 25 31 25 37 0 5 8 21 17 36 19 28 28 179 11 189 -4 3 -8 13 -8 23 0 10
-18 33 -40 51 -22 18 -40 41 -40 51 0 10 -11 31 -25 47 -14 17 -28 44 -31 62
-4 17 -12 34 -18 36 -7 3 -12 26 -12 54 0 28 -6 56 -12 62 -7 7 -12 22 -12 35
0 19 -4 22 -23 18 -19 -5 -25 0 -37 32 -20 55 -21 70 -5 83 11 9 15 5 21 -24
6 -37 18 -46 27 -23 12 32 -35 185 -63 202 -5 3 -10 17 -10 29 0 17 -7 25 -25
28 -13 3 -26 0 -28 -6 -9 -22 -31 14 -31 49 0 22 -5 35 -13 35 -7 0 -13 11
-13 26 0 17 -6 28 -20 31 -11 3 -20 10 -20 15 0 6 -7 8 -15 4 -17 -6 -78 17
-69 27 11 10 -39 47 -57 43 -12 -2 -19 5 -23 25 -6 32 -17 36 -40 14 -18 -19
-30 -19 -23 -2 4 10 -5 14 -31 15 -19 1 -39 7 -42 13 -5 8 -17 6 -39 -6 -21
-10 -40 -13 -54 -8 -12 4 -26 8 -32 9 -28 5 -55 17 -55 26 0 5 -5 6 -10 3 -6
-4 -18 -1 -26 6 -8 7 -27 14 -42 15 -15 2 -46 6 -69 10 -36 5 -45 3 -68 -20
-18 -18 -24 -32 -20 -46 4 -11 0 -29 -9 -42 -9 -12 -16 -33 -16 -45 0 -14 -6
-23 -16 -23 -10 0 -14 6 -10 15 3 9 0 15 -9 15 -8 0 -15 -4 -15 -10 0 -20 -21
-9 -30 15 -5 14 -14 25 -20 25 -5 0 -10 19 -10 43 -1 37 -38 133 -40 99 0 -9
-5 -10 -19 -2 -20 10 -74 14 -82 5z m-214 -105 c3 -5 -1 -10 -9 -10 -9 0 -16
5 -16 10 0 6 4 10 9 10 6 0 13 -4 16 -10z m1022 -132 c-1 -21 -17 -24 -17 -4
0 7 -7 19 -15 26 -25 21 -17 32 9 13 13 -10 24 -26 23 -35z m183 -48 c0 -5 -2
-10 -4 -10 -3 0 -8 5 -11 10 -3 6 -1 10 4 10 6 0 11 -4 11 -10z m-140 -15 c0
-8 -4 -15 -10 -15 -5 0 -10 7 -10 15 0 8 5 15 10 15 6 0 10 -7 10 -15z m180
-74 c0 -21 23 -45 33 -34 4 3 7 1 7 -5 0 -7 -7 -13 -15 -13 -8 -1 -20 -2 -26
-3 -6 -1 -12 16 -14 37 -1 20 2 37 7 37 4 0 8 -8 8 -19z m96 -59 c-10 -10 -29
15 -21 28 6 9 10 8 17 -4 6 -10 7 -20 4 -24z m-26 -53 c10 -18 9 -20 -7 -17
-10 2 -19 11 -21 21 -5 24 15 21 28 -4z m-1588 -96 c1 -16 1 -38 0 -50 0 -13
3 -23 7 -23 6 0 7 -83 2 -132 -1 -4 -7 -5 -15 -2 -15 6 -40 79 -32 93 3 5 -2
12 -11 15 -12 5 -13 10 -5 18 7 7 8 17 1 29 -7 14 -5 21 11 31 11 7 20 21 20
30 0 29 20 20 22 -9z m1618 6 c0 -11 -4 -17 -10 -14 -5 3 -10 13 -10 21 0 8 5
14 10 14 6 0 10 -9 10 -21z m-1409 -146 c12 -27 23 -70 26 -98 2 -27 10 -53
16 -57 8 -5 8 -8 -3 -8 -12 0 -12 -2 -2 -8 8 -6 15 -42 18 -100 6 -89 5 -90
-18 -94 -19 -2 -22 -8 -20 -30 2 -16 0 -28 -5 -28 -5 0 -10 10 -11 23 -1 12
-6 49 -12 82 -6 33 -13 80 -15 105 -3 25 -7 68 -11 95 -3 28 -5 63 -5 79 0 15
-6 35 -15 43 -13 14 -13 17 3 29 27 20 30 18 54 -33z m-151 -23 c0 -5 -4 -10
-10 -10 -5 0 -10 5 -10 10 0 6 5 10 10 10 6 0 10 -4 10 -10z m13 -121 c4 -29
2 -50 -6 -58 -9 -9 -9 -16 1 -31 6 -11 8 -21 2 -25 -14 -9 -20 10 -26 85 -7
102 17 126 29 29z m-1006 -195 c-3 -3 -12 -4 -19 -1 -8 3 -5 6 6 6 11 1 17 -2
13 -5z m-246 -46 c1 -7 0 -17 -1 -23 -1 -5 -2 -25 -2 -44 0 -19 -7 -41 -15
-50 -14 -13 -13 -16 3 -28 24 -17 6 -36 -37 -39 -23 -2 -29 1 -25 13 3 8 6 19
6 24 0 5 6 9 14 9 21 0 31 21 16 30 -10 6 -10 12 4 25 9 10 16 29 16 44 -3 40
-1 51 10 51 6 0 11 -6 11 -12z m49 -78 c0 -5 -4 -10 -10 -10 -5 0 -10 5 -10
10 0 6 5 10 10 10 6 0 10 -4 10 -10z m-192 -383 c15 6 15 5 3 -10 -19 -24 -31
-21 -30 6 0 12 3 17 5 10 3 -7 13 -9 22 -6z"/>
<path d="M7143 4679 c-11 -12 -33 -21 -47 -21 -14 0 -26 -4 -26 -9 0 -5 -5 -9
-10 -9 -20 0 -59 -32 -54 -44 7 -17 35 -17 56 1 9 8 31 23 50 32 30 17 35 17
57 2 24 -15 25 -15 17 4 -4 11 -4 16 0 12 9 -9 44 22 44 40 0 18 -20 16 -42
-4 -10 -9 -21 -13 -25 -9 -4 4 -1 11 7 16 8 6 10 10 5 10 -6 0 -20 -10 -32
-21z"/>
<path d="M7130 4590 c0 -5 5 -10 10 -10 6 0 10 5 10 10 0 6 -4 10 -10 10 -5 0
-10 -4 -10 -10z"/>
<path d="M7160 4590 c0 -5 5 -10 10 -10 6 0 10 5 10 10 0 6 -4 10 -10 10 -5 0
-10 -4 -10 -10z"/>
<path d="M6993 4553 c9 -2 23 -2 30 0 6 3 -1 5 -18 5 -16 0 -22 -2 -12 -5z"/>
<path d="M8570 4539 c0 -14 5 -19 14 -16 8 3 17 1 20 -6 3 -8 5 -8 5 1 1 13
-22 42 -33 42 -3 0 -6 -9 -6 -21z"/>
<path d="M7070 4531 c0 -6 5 -13 10 -16 6 -3 10 1 10 9 0 9 -4 16 -10 16 -5 0
-10 -4 -10 -9z"/>
<path d="M6970 4490 c0 -5 5 -10 10 -10 6 0 10 5 10 10 0 6 -4 10 -10 10 -5 0
-10 -4 -10 -10z"/>
<path d="M9116 4385 c4 -8 10 -15 15 -15 5 0 9 7 9 15 0 8 -7 15 -15 15 -9 0
-12 -6 -9 -15z"/>
<path d="M4215 4210 c-3 -5 -1 -10 4 -10 6 0 11 5 11 10 0 6 -2 10 -4 10 -3 0
-8 -4 -11 -10z"/>
<path d="M8917 4152 c-3 -15 -2 -34 3 -42 12 -24 0 -40 -31 -40 -17 0 -29 -5
-29 -13 0 -8 10 -13 23 -13 16 1 23 -5 25 -21 3 -17 -2 -23 -17 -23 -26 0 -34
-15 -16 -30 28 -23 75 -146 75 -197 0 -17 6 -33 14 -36 9 -4 17 -28 21 -61 6
-44 12 -59 33 -72 l25 -17 -24 -18 c-23 -17 -23 -18 -5 -32 11 -8 16 -19 12
-26 -4 -6 0 -23 9 -37 9 -15 15 -35 12 -45 -4 -14 0 -19 15 -19 18 0 19 5 13
53 -4 28 -9 54 -11 56 -2 2 1 10 6 16 7 8 7 21 1 38 -7 17 -6 28 2 36 9 9 8
14 -3 21 -9 6 -13 23 -12 49 2 21 -2 42 -8 46 -8 5 -8 11 0 20 7 9 9 27 5 45
-5 23 -3 30 9 30 23 0 19 21 -5 27 -18 5 -20 11 -14 48 5 35 3 44 -12 49 -17
7 -17 8 0 21 17 12 15 14 -17 25 -28 9 -36 17 -36 36 0 13 -5 24 -11 24 -7 0
-9 9 -6 21 4 13 -1 29 -13 41 -10 11 -16 28 -13 38 3 10 0 20 -5 24 -5 3 -12
-7 -15 -22z"/>
<path d="M6255 3960 c-3 -5 1 -10 10 -10 9 0 13 5 10 10 -3 6 -8 10 -10 10 -2
0 -7 -4 -10 -10z"/>
<path d="M6100 3699 c0 -5 5 -7 10 -4 6 3 10 8 10 11 0 2 -4 4 -10 4 -5 0 -10
-5 -10 -11z"/>
<path d="M8730 3495 c0 -8 6 -15 14 -15 7 0 19 7 26 15 11 13 8 15 -14 15 -16
0 -26 -5 -26 -15z"/>
<path d="M8748 3444 c5 -9 7 -25 5 -35 -3 -11 0 -19 7 -19 7 0 10 7 7 15 -4 8
-2 17 3 20 18 11 10 35 -10 35 -17 0 -19 -4 -12 -16z"/>
<path d="M8396 3325 c-3 -8 -2 -15 3 -15 5 0 14 7 21 15 10 12 10 15 -3 15 -8
0 -17 -7 -21 -15z"/>
<path d="M8115 3290 c-3 -5 -1 -10 4 -10 6 0 11 5 11 10 0 6 -2 10 -4 10 -3 0
-8 -4 -11 -10z"/>
<path d="M8367 3294 c-19 -20 30 -32 68 -18 13 5 14 8 3 15 -15 10 -62 12 -71
3z"/>
<path d="M8286 3021 c-30 -33 -11 -51 54 -51 50 0 58 3 63 21 4 15 -1 23 -20
30 -15 5 -33 9 -42 7 -9 -1 -21 1 -27 5 -6 3 -19 -2 -28 -12z"/>
<path d="M8603 3021 c-10 -16 -9 -20 6 -24 26 -6 48 8 26 17 -9 3 -13 10 -10
16 3 5 2 10 -2 10 -5 0 -14 -9 -20 -19z"/>
<path d="M4482 2983 c3 -41 18 -51 42 -28 11 12 25 15 46 10 23 -5 32 -3 36
10 8 20 4 23 -34 34 -25 8 -30 6 -25 -5 3 -8 0 -14 -6 -14 -6 0 -11 7 -11 15
0 9 -10 15 -26 15 -23 0 -25 -3 -22 -37z"/>
<path d="M7954 3008 c-8 -13 22 -38 45 -38 9 0 22 4 30 9 12 8 12 12 2 25 -16
19 -67 21 -77 4z"/>
<path d="M7966 2784 c-3 -9 -6 -30 -6 -48 0 -17 -9 -49 -20 -70 -11 -22 -21
-64 -24 -95 -2 -31 -2 -50 1 -43 2 6 10 9 15 6 7 -4 8 -2 4 5 -4 6 2 23 13 37
12 15 21 32 21 39 0 7 7 15 15 19 8 3 15 12 15 20 0 8 4 16 9 18 4 2 10 24 13
51 5 40 2 50 -15 62 -27 19 -33 19 -41 -1z"/>
<path d="M6090 2760 c0 -5 5 -10 10 -10 6 0 10 5 10 10 0 6 -4 10 -10 10 -5 0
-10 -4 -10 -10z"/>
<path d="M5320 2725 c0 -8 5 -15 10 -15 6 0 10 7 10 15 0 8 -4 15 -10 15 -5 0
-10 -7 -10 -15z"/>
<path d="M6313 2695 c0 -29 5 -46 15 -50 20 -8 35 4 23 19 -6 7 -7 22 -4 35 4
14 1 26 -8 32 -23 14 -26 11 -26 -36z"/>
<path d="M6498 2651 c-21 -21 -38 -44 -38 -53 0 -9 -7 -21 -15 -28 -9 -7 -13
-21 -10 -31 4 -12 -1 -23 -15 -31 -27 -16 -50 -70 -50 -114 0 -44 16 -84 34
-84 8 0 23 -12 35 -27 19 -27 20 -28 48 -11 23 14 31 30 46 90 21 82 29 301
12 316 -6 6 -24 -4 -47 -27z"/>
<path d="M7032 2679 c-18 -5 -30 -14 -27 -19 3 -5 -3 -15 -13 -22 -11 -7 -31
-36 -45 -64 -14 -27 -33 -56 -41 -63 -9 -8 -16 -19 -16 -26 0 -7 -7 -18 -15
-25 -9 -7 -13 -21 -10 -31 4 -11 2 -19 -4 -19 -5 0 -12 -15 -16 -32 -12 -60
-17 -70 -31 -64 -9 4 -14 -2 -14 -17 0 -41 -21 -99 -34 -94 -7 3 -12 -3 -12
-14 1 -10 -3 -17 -9 -16 -12 2 -7 101 6 105 5 2 9 16 9 32 0 15 7 33 15 40 9
8 13 21 9 32 -3 12 -1 17 6 16 7 -2 15 3 17 10 3 6 -1 12 -8 12 -7 0 -3 10 10
24 19 20 21 29 13 57 -6 23 -14 34 -26 32 -13 -1 -16 4 -13 19 3 11 0 21 -9
25 -8 3 -11 9 -8 15 3 5 12 7 19 4 8 -3 16 3 18 12 4 15 5 15 6 -1 0 -10 5
-16 11 -12 15 9 0 35 -21 35 -10 0 -19 5 -19 10 0 6 -11 10 -24 10 -20 0 -25
-6 -31 -40 -5 -32 -11 -40 -28 -40 -21 -1 -21 -1 -4 -15 18 -13 17 -14 -7 -30
-14 -9 -28 -30 -31 -48 -13 -61 -39 -142 -51 -157 -7 -8 -20 -37 -29 -63 -15
-46 -15 -49 6 -92 13 -25 28 -45 36 -45 7 0 13 -9 13 -20 0 -11 2 -20 5 -20
12 0 54 56 55 73 0 21 18 23 26 3 3 -9 12 -12 22 -8 15 5 15 3 4 -10 -8 -10
-9 -18 -3 -22 6 -4 8 -13 4 -22 -4 -11 2 -14 28 -13 19 1 46 -1 60 -5 21 -6
32 -2 55 21 30 28 40 53 73 178 26 97 53 168 67 180 11 10 35 76 49 140 4 16
11 33 16 36 13 8 0 59 -15 58 -6 0 -26 -5 -44 -10z m-252 -59 c0 -5 -4 -10
-10 -10 -5 0 -10 5 -10 10 0 6 5 10 10 10 6 0 10 -4 10 -10z"/>
<path d="M6225 2650 c-3 -5 -1 -18 5 -29 5 -11 10 -28 10 -39 0 -22 22 -34 45
-26 17 7 20 40 4 50 -6 3 -9 15 -6 25 3 11 1 17 -3 14 -5 -3 -11 -1 -15 5 -8
13 -32 13 -40 0z"/>
<path d="M7285 2614 c-8 -20 -15 -42 -15 -48 0 -6 -11 -28 -25 -49 -14 -20
-26 -53 -27 -72 -1 -19 -5 -35 -10 -35 -11 0 -78 -69 -78 -81 0 -5 -11 -11
-25 -15 -15 -4 -25 -13 -25 -24 0 -10 -10 -27 -22 -37 -53 -43 -72 -132 -32
-147 8 -3 15 -16 15 -28 1 -17 2 -18 6 -5 2 9 11 17 19 17 10 0 13 7 9 28 -6
23 -5 25 7 11 7 -9 23 -15 35 -14 27 2 63 32 63 53 0 9 4 29 10 46 5 17 12 43
15 59 3 15 10 27 17 27 20 0 60 52 65 86 3 19 10 34 14 34 5 0 9 11 9 24 0 13
7 39 14 58 10 24 13 53 9 91 -7 67 -25 75 -48 21z"/>
<path d="M7370 2624 c0 -8 5 -12 10 -9 6 4 8 11 5 16 -9 14 -15 11 -15 -7z"/>
<path d="M7625 2631 c-3 -6 -1 -11 4 -11 19 0 12 -32 -8 -37 -22 -6 -34 -29
-24 -45 3 -6 1 -8 -4 -5 -12 7 -36 -16 -27 -25 3 -4 1 -22 -4 -42 -6 -21 -7
-36 -1 -36 14 0 41 48 34 60 -3 5 0 10 8 10 18 0 49 63 51 103 1 30 -16 47
-29 28z"/>
<path d="M6810 2561 c0 -12 5 -21 10 -21 6 0 10 6 10 14 0 8 -4 18 -10 21 -5
3 -10 -3 -10 -14z"/>
<path d="M4270 2540 c-8 -5 -43 -18 -77 -30 -35 -13 -63 -28 -63 -35 0 -6 17
-18 39 -25 l38 -12 6 -84 c5 -65 11 -89 26 -105 11 -12 18 -26 14 -32 -3 -5 0
-7 8 -5 8 3 14 13 15 24 2 38 4 44 15 44 6 0 9 -10 8 -22 -5 -32 8 -48 37 -48
15 0 24 6 24 16 0 8 5 12 10 9 6 -3 10 4 10 17 0 31 27 67 37 52 10 -14 49
-12 65 4 13 13 68 17 68 5 0 -5 12 -8 28 -9 15 0 36 -2 47 -5 35 -8 30 29 -7
45 -46 21 -89 62 -82 79 5 14 -20 47 -36 47 -4 0 -10 9 -13 20 -5 18 -11 20
-45 16 -28 -3 -44 0 -52 10 -7 7 -16 11 -21 8 -5 -3 -9 -1 -9 5 0 5 -13 9 -29
9 -15 -1 -32 1 -37 4 -5 3 -16 2 -24 -2z m95 -280 c3 -5 1 -10 -4 -10 -6 0
-11 5 -11 10 0 6 2 10 4 10 3 0 8 -4 11 -10z"/>
<path d="M7880 2530 c0 -11 5 -20 10 -20 6 0 10 9 10 20 0 11 -4 20 -10 20 -5
0 -10 -9 -10 -20z"/>
<path d="M6860 2510 c0 -5 5 -10 11 -10 5 0 7 5 4 10 -3 6 -8 10 -11 10 -2 0
-4 -4 -4 -10z"/>
<path d="M6048 2423 c7 -3 16 -2 19 1 4 3 -2 6 -13 5 -11 0 -14 -3 -6 -6z"/>
<path d="M6083 2378 c-8 -18 -6 -29 11 -52 27 -37 117 -126 128 -126 4 0 8 -6
8 -13 0 -7 16 -26 35 -41 19 -16 35 -34 35 -41 0 -19 81 -94 109 -102 14 -3
45 -21 69 -40 24 -18 50 -33 58 -33 8 0 22 -4 32 -9 113 -57 136 -62 285 -65
87 -1 111 2 118 14 5 9 9 10 9 3 0 -9 10 -8 41 2 23 8 52 15 64 15 13 0 25 7
29 15 4 10 20 15 54 15 46 0 82 13 157 59 17 10 47 21 68 25 21 4 43 16 50 27
6 11 27 29 45 41 25 15 31 25 26 40 -4 15 -3 18 6 13 7 -4 16 -1 21 6 21 33 0
40 -28 10 -18 -20 -121 -51 -166 -51 -26 0 -40 20 -31 45 4 9 0 15 -9 15 -20
0 -28 -13 -29 -50 -1 -33 -46 -80 -76 -80 -10 0 -23 -5 -30 -12 -6 -6 -33 -10
-59 -9 -90 4 -114 2 -130 -11 -12 -10 -55 -12 -169 -11 -142 2 -157 4 -203 27
-27 14 -52 30 -56 36 -3 5 -16 10 -28 10 -13 0 -47 23 -82 56 -33 31 -75 62
-94 70 -18 8 -44 26 -57 40 -14 13 -29 24 -34 24 -5 0 -44 36 -88 80 -75 77
-79 79 -89 58z"/>
<path d="M7660 2306 c-5 -5 -10 -18 -10 -28 0 -10 -7 -18 -16 -18 -12 0 -15
-7 -12 -25 3 -14 1 -25 -6 -25 -6 0 -22 -9 -36 -20 -21 -17 -23 -21 -10 -30
21 -14 33 -12 27 3 -3 8 7 21 24 31 19 11 29 25 29 42 0 19 5 24 25 24 21 0
25 5 25 28 0 30 -20 38 -40 18z"/>
<path d="M6495 2230 c3 -5 11 -10 16 -10 6 0 7 5 4 10 -3 6 -11 10 -16 10 -6
0 -7 -4 -4 -10z"/>
<path d="M6866 1655 c4 -8 8 -15 10 -15 2 0 4 7 4 15 0 8 -4 15 -10 15 -5 0
-7 -7 -4 -15z"/>
</g>
</svg>
